<mxfile host="Electron" modified="2025-08-06T02:47:27.631Z" agent="Mozilla/5.0 (Macintosh; Intel Mac OS X 10_15_7) AppleWebKit/537.36 (KHTML, like Gecko) draw.io/23.1.5 Chrome/120.0.6099.109 Electron/28.1.0 Safari/537.36" etag="C6a3DKXq8S69uDOo0uUy" version="23.1.5" type="device">
  <diagram name="第 1 页" id="L31HDswCqaVExqFeWjfk">
    <mxGraphModel dx="734" dy="559" grid="0" gridSize="10" guides="1" tooltips="1" connect="1" arrows="1" fold="1" page="0" pageScale="1" pageWidth="1169" pageHeight="827" math="1" shadow="0">
      <root>
        <mxCell id="0" />
        <mxCell id="1" parent="0" />
        <mxCell id="Vq3kiThoHMUSw-BZwm6t-6" style="edgeStyle=orthogonalEdgeStyle;rounded=0;orthogonalLoop=1;jettySize=auto;html=1;exitX=1;exitY=0.5;exitDx=0;exitDy=0;entryX=0;entryY=0.5;entryDx=0;entryDy=0;" edge="1" parent="1" source="Vq3kiThoHMUSw-BZwm6t-1" target="Vq3kiThoHMUSw-BZwm6t-5">
          <mxGeometry relative="1" as="geometry" />
        </mxCell>
        <mxCell id="Vq3kiThoHMUSw-BZwm6t-1" value="&lt;font style=&quot;font-size: 15px;&quot;&gt;-&lt;/font&gt;" style="ellipse;whiteSpace=wrap;html=1;aspect=fixed;" vertex="1" parent="1">
          <mxGeometry x="230" y="190" width="20" height="20" as="geometry" />
        </mxCell>
        <mxCell id="Vq3kiThoHMUSw-BZwm6t-3" value="" style="endArrow=classic;html=1;rounded=0;entryX=0;entryY=0.5;entryDx=0;entryDy=0;" edge="1" parent="1" target="Vq3kiThoHMUSw-BZwm6t-1">
          <mxGeometry width="50" height="50" relative="1" as="geometry">
            <mxPoint x="160" y="200" as="sourcePoint" />
            <mxPoint x="540" y="370" as="targetPoint" />
          </mxGeometry>
        </mxCell>
        <mxCell id="Vq3kiThoHMUSw-BZwm6t-4" value="$$SP$$" style="text;html=1;align=center;verticalAlign=middle;resizable=0;points=[];autosize=1;strokeColor=none;fillColor=none;" vertex="1" parent="1">
          <mxGeometry x="165" y="168" width="70" height="30" as="geometry" />
        </mxCell>
        <mxCell id="Vq3kiThoHMUSw-BZwm6t-10" style="edgeStyle=orthogonalEdgeStyle;rounded=0;orthogonalLoop=1;jettySize=auto;html=1;exitX=1;exitY=0.5;exitDx=0;exitDy=0;entryX=0;entryY=0.5;entryDx=0;entryDy=0;" edge="1" parent="1" source="Vq3kiThoHMUSw-BZwm6t-5" target="Vq3kiThoHMUSw-BZwm6t-8">
          <mxGeometry relative="1" as="geometry" />
        </mxCell>
        <mxCell id="Vq3kiThoHMUSw-BZwm6t-5" value="控制器" style="rounded=0;whiteSpace=wrap;html=1;" vertex="1" parent="1">
          <mxGeometry x="300" y="180" width="70" height="40" as="geometry" />
        </mxCell>
        <mxCell id="Vq3kiThoHMUSw-BZwm6t-7" value="$$e(t)$$" style="text;html=1;align=center;verticalAlign=middle;resizable=0;points=[];autosize=1;strokeColor=none;fillColor=none;" vertex="1" parent="1">
          <mxGeometry x="240" y="168" width="70" height="30" as="geometry" />
        </mxCell>
        <mxCell id="Vq3kiThoHMUSw-BZwm6t-11" style="edgeStyle=orthogonalEdgeStyle;rounded=0;orthogonalLoop=1;jettySize=auto;html=1;exitX=1;exitY=0.5;exitDx=0;exitDy=0;entryX=0;entryY=0.5;entryDx=0;entryDy=0;" edge="1" parent="1" source="Vq3kiThoHMUSw-BZwm6t-8" target="Vq3kiThoHMUSw-BZwm6t-9">
          <mxGeometry relative="1" as="geometry" />
        </mxCell>
        <mxCell id="Vq3kiThoHMUSw-BZwm6t-8" value="执行器" style="rounded=0;whiteSpace=wrap;html=1;" vertex="1" parent="1">
          <mxGeometry x="422" y="180" width="70" height="40" as="geometry" />
        </mxCell>
        <mxCell id="Vq3kiThoHMUSw-BZwm6t-15" style="edgeStyle=orthogonalEdgeStyle;rounded=0;orthogonalLoop=1;jettySize=auto;html=1;exitX=1;exitY=0.5;exitDx=0;exitDy=0;" edge="1" parent="1" source="Vq3kiThoHMUSw-BZwm6t-9">
          <mxGeometry relative="1" as="geometry">
            <mxPoint x="690" y="200.26315789473688" as="targetPoint" />
          </mxGeometry>
        </mxCell>
        <mxCell id="Vq3kiThoHMUSw-BZwm6t-24" style="edgeStyle=orthogonalEdgeStyle;rounded=0;orthogonalLoop=1;jettySize=auto;html=1;exitX=0.5;exitY=0;exitDx=0;exitDy=0;endArrow=none;endFill=0;startArrow=classic;startFill=1;" edge="1" parent="1" source="Vq3kiThoHMUSw-BZwm6t-9">
          <mxGeometry relative="1" as="geometry">
            <mxPoint x="584" y="140" as="targetPoint" />
          </mxGeometry>
        </mxCell>
        <mxCell id="Vq3kiThoHMUSw-BZwm6t-9" value="被控对象" style="rounded=0;whiteSpace=wrap;html=1;" vertex="1" parent="1">
          <mxGeometry x="549" y="180" width="70" height="40" as="geometry" />
        </mxCell>
        <mxCell id="Vq3kiThoHMUSw-BZwm6t-13" style="edgeStyle=orthogonalEdgeStyle;rounded=0;orthogonalLoop=1;jettySize=auto;html=1;exitX=0;exitY=0.5;exitDx=0;exitDy=0;entryX=0.5;entryY=1;entryDx=0;entryDy=0;" edge="1" parent="1" source="Vq3kiThoHMUSw-BZwm6t-12" target="Vq3kiThoHMUSw-BZwm6t-1">
          <mxGeometry relative="1" as="geometry" />
        </mxCell>
        <mxCell id="Vq3kiThoHMUSw-BZwm6t-12" value="测量" style="rounded=0;whiteSpace=wrap;html=1;" vertex="1" parent="1">
          <mxGeometry x="420" y="280" width="70" height="40" as="geometry" />
        </mxCell>
        <mxCell id="Vq3kiThoHMUSw-BZwm6t-14" value="$$PV$$" style="text;html=1;align=center;verticalAlign=middle;resizable=0;points=[];autosize=1;strokeColor=none;fillColor=none;" vertex="1" parent="1">
          <mxGeometry x="185" y="218" width="70" height="30" as="geometry" />
        </mxCell>
        <mxCell id="Vq3kiThoHMUSw-BZwm6t-20" style="edgeStyle=orthogonalEdgeStyle;rounded=0;orthogonalLoop=1;jettySize=auto;html=1;entryX=1;entryY=0.5;entryDx=0;entryDy=0;" edge="1" parent="1" source="Vq3kiThoHMUSw-BZwm6t-17" target="Vq3kiThoHMUSw-BZwm6t-12">
          <mxGeometry relative="1" as="geometry">
            <Array as="points">
              <mxPoint x="644" y="300" />
            </Array>
          </mxGeometry>
        </mxCell>
        <mxCell id="Vq3kiThoHMUSw-BZwm6t-17" value="" style="shape=waypoint;sketch=0;fillStyle=solid;size=6;pointerEvents=1;points=[];fillColor=none;resizable=0;rotatable=0;perimeter=centerPerimeter;snapToPoint=1;" vertex="1" parent="1">
          <mxGeometry x="634" y="190" width="20" height="20" as="geometry" />
        </mxCell>
        <mxCell id="Vq3kiThoHMUSw-BZwm6t-21" value="$$OP$$" style="text;html=1;align=center;verticalAlign=middle;resizable=0;points=[];autosize=1;strokeColor=none;fillColor=none;" vertex="1" parent="1">
          <mxGeometry x="352" y="198" width="70" height="30" as="geometry" />
        </mxCell>
        <mxCell id="Vq3kiThoHMUSw-BZwm6t-22" value="$$u(t)$$" style="text;html=1;align=center;verticalAlign=middle;resizable=0;points=[];autosize=1;strokeColor=none;fillColor=none;" vertex="1" parent="1">
          <mxGeometry x="480" y="168" width="70" height="30" as="geometry" />
        </mxCell>
        <mxCell id="Vq3kiThoHMUSw-BZwm6t-23" value="$$y(t)$$" style="text;html=1;align=center;verticalAlign=middle;resizable=0;points=[];autosize=1;strokeColor=none;fillColor=none;" vertex="1" parent="1">
          <mxGeometry x="617" y="168" width="70" height="30" as="geometry" />
        </mxCell>
        <mxCell id="Vq3kiThoHMUSw-BZwm6t-25" value="$$d(t)$$" style="text;html=1;align=center;verticalAlign=middle;resizable=0;points=[];autosize=1;strokeColor=none;fillColor=none;" vertex="1" parent="1">
          <mxGeometry x="550" y="114" width="70" height="30" as="geometry" />
        </mxCell>
      </root>
    </mxGraphModel>
  </diagram>
</mxfile>
